<?xml version="1.0" encoding="UTF-8" standalone="no"?>
<svg width="186px" height="60px" viewBox="0 0 186 60" version="1.1" xmlns="http://www.w3.org/2000/svg" xmlns:xlink="http://www.w3.org/1999/xlink">
    <!-- Generator: Sketch 3.8.2 (29753) - http://www.bohemiancoding.com/sketch -->
    <title>Group</title>
    <desc>Created with Sketch.</desc>
    <defs></defs>
    <g id="Page-1" stroke="none" stroke-width="1" fill="none" fill-rule="evenodd">
        <g id="Group">
            <path d="M91,32 L91,42.5 C91,44 91.8,45 93,45 C94.2,45 95,44 95,42.5 L95,32 L105.5,32 C107,32 108,31.2 108,30 C108,28.8 107,28 105.5,28 L95,28 L95,17.5 C95,16 94.2,15 93,15 C91.8,15 91,16 91,17.5 L91,28 L80.5,28 C79,28 78,28.8 78,30 C78,31.2 79,32 80.5,32 L91,32 Z" id="Combined-Shape" fill="#B8C0C9"></path>
            <path d="M30.3703704,48.9959184 C26.031746,48.9959184 22.010582,47.8285714 18.3068783,45.6 L21.2698413,40.4 C24.021164,42.3102041 26.984127,43.3714286 30.4761905,43.3714286 C34.4973545,43.3714286 36.9312169,41.5673469 36.9312169,38.7020408 C36.9312169,36.0489796 35.4497354,34.5632653 28.6772487,32.9714286 C20.8465608,31.0612245 16.4021164,28.7265306 16.4021164,21.9346939 C16.4021164,15.5673469 21.6931217,11.2163265 28.994709,11.2163265 C33.4391534,11.2163265 37.1428571,12.3836735 40.3174603,14.4 L37.2486772,19.6 C34.4973545,17.7959184 31.6402116,16.8408163 28.7830688,16.8408163 C24.973545,16.8408163 22.7513228,18.7510204 22.7513228,21.2979592 C22.7513228,24.1632653 24.4444444,25.4367347 31.4285714,27.1346939 C39.1534392,29.044898 43.2804233,31.8040816 43.2804233,37.9591837 C43.4920635,44.8571429 38.0952381,48.9959184 30.3703704,48.9959184 L30.3703704,48.9959184 Z M44.973545,4 L15.026455,4 L-1.24344979e-12,30 L15.026455,56 L44.973545,56 L60,30 L44.973545,4 Z" id="Page-1" fill="#0070D3"></path>
            <g id="Page-1" transform="translate(126.000000, 0.000000)">
                <path d="M38.8979508,3.69339344 C37.9861475,0.887163934 34.9718852,-0.648737705 32.1651639,0.263065574 C29.3589344,1.17486885 27.8230328,4.18913115 28.7348361,6.99536066 L42.5510656,49.5029016 C43.4992623,52.1251967 46.3315574,53.5981475 49.0502459,52.8156885 C51.8859836,51.9992951 53.6151639,48.9874918 52.7097541,46.2024098 C52.6753279,46.0966721 38.8979508,3.69339344 38.8979508,3.69339344" id="Fill-1" fill="#E9A823"></path>
                <path d="M17.4902459,10.6491639 C16.5784426,7.84293443 13.5641803,6.30703279 10.757459,7.21883607 C7.95122951,8.13063934 6.41532787,11.1449016 7.32713115,13.9511311 L21.1433607,56.4586721 C22.0915574,59.0809672 24.9238525,60.553918 27.642541,59.771459 C30.4782787,58.9550656 32.207459,55.9432623 31.3020492,53.1581803 C31.267623,53.0524426 17.4902459,10.6491639 17.4902459,10.6491639" id="Fill-3" fill="#3FB991"></path>
                <path d="M56.287918,38.8980984 C59.0941475,37.9862951 60.6300492,34.9720328 59.7182459,32.1653115 C58.8064426,29.359082 55.7921803,27.8231803 52.9859508,28.7349836 L10.4784098,42.5512131 C7.85611475,43.4994098 6.38316393,46.3317049 7.16562295,49.0503934 C7.98201639,51.8861311 10.9938197,53.6153115 13.7789016,52.7099016 C13.8846393,52.6754754 56.287918,38.8980984 56.287918,38.8980984" id="Fill-5" fill="#E01664"></path>
                <path d="M19.3377541,50.9039508 C22.1046393,50.0049344 25.6707049,48.8462459 29.4974262,47.6029672 C28.5984098,44.836082 27.4392295,41.2695246 26.1959508,37.4423115 L16.0357869,40.7447705 L19.3377541,50.9039508 Z" id="Fill-7" fill="#462948"></path>
                <path d="M40.745459,43.9481803 C44.5864426,42.6999836 48.1564426,41.5403115 50.9051311,40.6471967 C50.005623,37.8798197 48.8469344,34.3127705 47.6031639,30.4845738 L37.443,33.7870328 L40.745459,43.9481803 Z" id="Fill-9" fill="#CD2026"></path>
                <path d="M49.3321475,17.4904426 C52.138377,16.5786393 53.6742787,13.564377 52.7624754,10.7576557 C51.8506721,7.95142623 48.8364098,6.41552459 46.0301803,7.32732787 L3.52263934,21.1435574 C0.900344262,22.0917541 -0.572606557,24.9240492 0.209852459,27.6427377 C1.0262459,30.4784754 4.03804918,32.2076557 6.82313115,31.3022459 C6.92886885,31.2678197 49.3321475,17.4904426 49.3321475,17.4904426" id="Fill-11" fill="#70CBDB"></path>
                <path d="M12.379918,29.4969344 C15.1468033,28.597918 18.7138525,27.4387377 22.5415574,26.195459 C21.2933607,22.3539836 20.1331967,18.7839836 19.240082,16.0348033 L9.07795082,19.3377541 L12.379918,29.4969344 Z" id="Fill-13" fill="#1B947D"></path>
                <path d="M33.7875738,22.5411639 C37.629541,21.2929672 41.2000328,20.1328033 43.9492131,19.2396885 C42.7010164,15.3972295 41.5403607,11.8262459 40.6472459,9.07706557 L30.4851148,12.3800164 L33.7875738,22.5411639 Z" id="Fill-15" fill="#65863A"></path>
            </g>
        </g>
    </g>
</svg>
